<?xml version="1.0" encoding="utf-8" standalone="no"?>
<!DOCTYPE svg PUBLIC "-//W3C//DTD SVG 1.1//EN"
  "http://www.w3.org/Graphics/SVG/1.1/DTD/svg11.dtd">
<svg xmlns:xlink="http://www.w3.org/1999/xlink" width="318.857031pt" height="91.35pt" viewBox="0 0 318.857031 91.35" xmlns="http://www.w3.org/2000/svg" version="1.1">
 <metadata>
  <rdf:RDF xmlns:dc="http://purl.org/dc/elements/1.1/" xmlns:cc="http://creativecommons.org/ns#" xmlns:rdf="http://www.w3.org/1999/02/22-rdf-syntax-ns#">
   <cc:Work>
    <dc:type rdf:resource="http://purl.org/dc/dcmitype/StillImage"/>
    <dc:date>2024-06-26T20:59:31.759759</dc:date>
    <dc:format>image/svg+xml</dc:format>
    <dc:creator>
     <cc:Agent>
      <dc:title>Matplotlib v3.8.3, https://matplotlib.org/</dc:title>
     </cc:Agent>
    </dc:creator>
   </cc:Work>
  </rdf:RDF>
 </metadata>
 <defs>
  <style type="text/css">*{stroke-linejoin: round; stroke-linecap: butt}</style>
 </defs>
 <g id="figure_1">
  <g id="patch_1">
   <path d="M -0 91.35 
L 318.857031 91.35 
L 318.857031 -0 
L -0 -0 
L -0 91.35 
z
" style="fill: none"/>
  </g>
  <g id="axes_1">
   <g id="patch_2">
    <path d="M 79.357031 43.245 
C 80.502709 43.245 81.601616 42.789818 82.411733 41.979701 
C 83.221849 41.169585 83.677031 40.070677 83.677031 38.925 
C 83.677031 37.779323 83.221849 36.680415 82.411733 35.870299 
C 81.601616 35.060182 80.502709 34.605 79.357031 34.605 
C 78.211354 34.605 77.112446 35.060182 76.30233 35.870299 
C 75.492214 36.680415 75.037031 37.779323 75.037031 38.925 
C 75.037031 40.070677 75.492214 41.169585 76.30233 41.979701 
C 77.112446 42.789818 78.211354 43.245 79.357031 43.245 
L 79.357031 43.245 
z
" clip-path="url(#pb7560ab4f5)" style="fill: none; stroke: #000000; stroke-width: 2; stroke-linejoin: miter"/>
   </g>
   <g id="patch_3">
    <path d="M 79.357031 70.245 
C 80.502709 70.245 81.601616 69.789818 82.411733 68.979701 
C 83.221849 68.169585 83.677031 67.070677 83.677031 65.925 
C 83.677031 64.779323 83.221849 63.680415 82.411733 62.870299 
C 81.601616 62.060182 80.502709 61.605 79.357031 61.605 
C 78.211354 61.605 77.112446 62.060182 76.30233 62.870299 
C 75.492214 63.680415 75.037031 64.779323 75.037031 65.925 
C 75.037031 67.070677 75.492214 68.169585 76.30233 68.979701 
C 77.112446 69.789818 78.211354 70.245 79.357031 70.245 
L 79.357031 70.245 
z
" clip-path="url(#pb7560ab4f5)" style="fill: none; stroke: #000000; stroke-width: 2; stroke-linejoin: miter"/>
   </g>
   <g id="line2d_1">
    <path d="M 217.057031 43.425 
L 218.210295 43.388017 
L 219.35882 43.27722 
L 220.497887 43.093065 
L 221.622814 42.836308 
L 222.728979 42.508003 
L 223.811837 42.109502 
L 224.866939 41.64244 
L 225.889947 41.108737 
L 226.876659 40.510586 
L 227.823021 39.850445 
L 228.725142 39.131027 
L 229.579317 38.355288 
L 230.382035 37.526416 
L 231.129998 36.647816 
L 231.820132 35.7231 
L 232.449601 34.756066 
L 233.015819 33.750689 
L 233.516458 32.7111 
L 233.949463 31.641571 
L 234.313053 30.546497 
L 234.605734 29.430377 
L 234.826303 28.297798 
L 234.973855 27.153414 
L 235.047783 26.001928 
L 235.047783 24.848072 
L 234.973855 23.696586 
L 234.826303 22.552202 
L 234.605734 21.419623 
L 234.313053 20.303503 
L 233.949463 19.208429 
L 233.516458 18.1389 
L 233.015819 17.099311 
L 232.449601 16.093934 
L 231.820132 15.1269 
L 231.129998 14.202184 
L 230.382035 13.323584 
L 229.579317 12.494712 
L 228.725142 11.718973 
L 227.823021 10.999555 
L 226.876659 10.339414 
L 225.889947 9.741263 
L 224.866939 9.20756 
L 223.811837 8.740498 
L 222.728979 8.341997 
L 221.622814 8.013692 
L 220.497887 7.756935 
L 219.35882 7.57278 
L 218.210295 7.461983 
L 217.057031 7.425 
L 217.057031 7.425 
L 193.657031 7.425 
L 193.657031 25.425 
L 193.657031 43.425 
L 217.057031 43.425 
" clip-path="url(#pb7560ab4f5)" style="fill: none; stroke: #000000; stroke-width: 2; stroke-linecap: round"/>
   </g>
   <g id="line2d_2">
    <path d="M 181.057031 37.305 
L 193.657031 37.305 
" clip-path="url(#pb7560ab4f5)" style="fill: none; stroke: #000000; stroke-width: 2; stroke-linecap: round"/>
   </g>
   <g id="line2d_3">
    <path d="M 181.057031 25.425 
L 193.657031 25.425 
" clip-path="url(#pb7560ab4f5)" style="fill: none; stroke: #000000; stroke-width: 2; stroke-linecap: round"/>
   </g>
   <g id="line2d_4">
    <path d="M 181.057031 13.545 
L 193.657031 13.545 
" clip-path="url(#pb7560ab4f5)" style="fill: none; stroke: #000000; stroke-width: 2; stroke-linecap: round"/>
   </g>
   <g id="line2d_5">
    <path d="M 235.057031 25.425 
L 247.657031 25.425 
" clip-path="url(#pb7560ab4f5)" style="fill: none; stroke: #000000; stroke-width: 2; stroke-linecap: round"/>
   </g>
   <g id="line2d_6">
    <path d="M 145.057031 70.425 
L 146.210295 70.388017 
L 147.35882 70.27722 
L 148.497887 70.093065 
L 149.622814 69.836308 
L 150.728979 69.508003 
L 151.811837 69.109502 
L 152.866939 68.64244 
L 153.889947 68.108737 
L 154.876659 67.510586 
L 155.823021 66.850445 
L 156.725142 66.131027 
L 157.579317 65.355288 
L 158.382035 64.526416 
L 159.129998 63.647816 
L 159.820132 62.7231 
L 160.449601 61.756066 
L 161.015819 60.750689 
L 161.516458 59.7111 
L 161.949463 58.641571 
L 162.313053 57.546497 
L 162.605734 56.430377 
L 162.826303 55.297798 
L 162.973855 54.153414 
L 163.047783 53.001928 
L 163.047783 51.848072 
L 162.973855 50.696586 
L 162.826303 49.552202 
L 162.605734 48.419623 
L 162.313053 47.303503 
L 161.949463 46.208429 
L 161.516458 45.1389 
L 161.015819 44.099311 
L 160.449601 43.093934 
L 159.820132 42.1269 
L 159.129998 41.202184 
L 158.382035 40.323584 
L 157.579317 39.494712 
L 156.725142 38.718973 
L 155.823021 37.999555 
L 154.876659 37.339414 
L 153.889947 36.741263 
L 152.866939 36.20756 
L 151.811837 35.740498 
L 150.728979 35.341997 
L 149.622814 35.013692 
L 148.497887 34.756935 
L 147.35882 34.57278 
L 146.210295 34.461983 
L 145.057031 34.425 
L 145.057031 34.425 
L 121.657031 34.425 
L 121.657031 52.425 
L 121.657031 70.425 
L 145.057031 70.425 
" clip-path="url(#pb7560ab4f5)" style="fill: none; stroke: #000000; stroke-width: 2; stroke-linecap: round"/>
   </g>
   <g id="line2d_7">
    <path d="M 109.057031 61.425 
L 121.657031 61.425 
" clip-path="url(#pb7560ab4f5)" style="fill: none; stroke: #000000; stroke-width: 2; stroke-linecap: round"/>
   </g>
   <g id="line2d_8">
    <path d="M 109.057031 43.425 
L 121.657031 43.425 
" clip-path="url(#pb7560ab4f5)" style="fill: none; stroke: #000000; stroke-width: 2; stroke-linecap: round"/>
   </g>
   <g id="line2d_9">
    <path d="M 163.057031 52.425 
L 175.657031 52.425 
" clip-path="url(#pb7560ab4f5)" style="fill: none; stroke: #000000; stroke-width: 2; stroke-linecap: round"/>
   </g>
   <g id="line2d_10">
    <path d="M 31.657031 38.925 
L 51.637031 38.925 
M 83.677031 38.925 
L 103.657031 38.925 
" clip-path="url(#pb7560ab4f5)" style="fill: none; stroke: #000000; stroke-width: 2; stroke-linecap: round"/>
   </g>
   <g id="line2d_11">
    <path d="M 51.637031 20.925 
L 75.037031 38.925 
L 51.637031 56.925 
L 51.637031 20.925 
" clip-path="url(#pb7560ab4f5)" style="fill: none; stroke: #000000; stroke-width: 2; stroke-linecap: round"/>
   </g>
   <g id="line2d_12">
    <path d="M 109.057031 43.425 
L 103.657031 43.425 
L 103.657031 38.925 
" clip-path="url(#pb7560ab4f5)" style="fill: none; stroke: #000000; stroke-width: 2; stroke-linecap: round"/>
   </g>
   <g id="line2d_13">
    <path d="M 31.657031 65.925 
L 51.637031 65.925 
M 83.677031 65.925 
L 103.657031 65.925 
" clip-path="url(#pb7560ab4f5)" style="fill: none; stroke: #000000; stroke-width: 2; stroke-linecap: round"/>
   </g>
   <g id="line2d_14">
    <path d="M 51.637031 47.925 
L 75.037031 65.925 
L 51.637031 83.925 
L 51.637031 47.925 
" clip-path="url(#pb7560ab4f5)" style="fill: none; stroke: #000000; stroke-width: 2; stroke-linecap: round"/>
   </g>
   <g id="line2d_15">
    <path d="M 109.057031 61.425 
L 103.657031 61.425 
L 103.657031 65.925 
" clip-path="url(#pb7560ab4f5)" style="fill: none; stroke: #000000; stroke-width: 2; stroke-linecap: round"/>
   </g>
   <g id="line2d_16">
    <path d="M 181.057031 37.305 
L 175.657031 37.305 
L 175.657031 52.425 
" clip-path="url(#pb7560ab4f5)" style="fill: none; stroke: #000000; stroke-width: 2; stroke-linecap: round"/>
   </g>
   <g id="text_1">
    <!-- ${U10Active}$ -->
    <g transform="translate(251.257031 28.874219) scale(0.125 -0.125)">
     <defs>
      <path id="DejaVuSans-Oblique-55" d="M 991 4666 
L 1625 4666 
L 1075 1831 
Q 1041 1641 1027 1517 
Q 1013 1394 1013 1300 
Q 1013 869 1253 645 
Q 1494 422 1959 422 
Q 2563 422 2898 753 
Q 3234 1084 3378 1831 
L 3928 4666 
L 4563 4666 
L 4000 1753 
Q 3816 809 3300 359 
Q 2784 -91 1888 -91 
Q 1188 -91 780 261 
Q 372 613 372 1216 
Q 372 1325 387 1461 
Q 403 1597 434 1753 
L 991 4666 
z
" transform="scale(0.015625)"/>
      <path id="DejaVuSans-31" d="M 794 531 
L 1825 531 
L 1825 4091 
L 703 3866 
L 703 4441 
L 1819 4666 
L 2450 4666 
L 2450 531 
L 3481 531 
L 3481 0 
L 794 0 
L 794 531 
z
" transform="scale(0.015625)"/>
      <path id="DejaVuSans-30" d="M 2034 4250 
Q 1547 4250 1301 3770 
Q 1056 3291 1056 2328 
Q 1056 1369 1301 889 
Q 1547 409 2034 409 
Q 2525 409 2770 889 
Q 3016 1369 3016 2328 
Q 3016 3291 2770 3770 
Q 2525 4250 2034 4250 
z
M 2034 4750 
Q 2819 4750 3233 4129 
Q 3647 3509 3647 2328 
Q 3647 1150 3233 529 
Q 2819 -91 2034 -91 
Q 1250 -91 836 529 
Q 422 1150 422 2328 
Q 422 3509 836 4129 
Q 1250 4750 2034 4750 
z
" transform="scale(0.015625)"/>
      <path id="DejaVuSans-Oblique-41" d="M 2356 4666 
L 3072 4666 
L 3938 0 
L 3278 0 
L 3084 1197 
L 984 1197 
L 325 0 
L -341 0 
L 2356 4666 
z
M 2584 4044 
L 1275 1722 
L 2988 1722 
L 2584 4044 
z
" transform="scale(0.015625)"/>
      <path id="DejaVuSans-Oblique-63" d="M 3431 3366 
L 3316 2797 
Q 3109 2947 2876 3022 
Q 2644 3097 2394 3097 
Q 2119 3097 1870 3000 
Q 1622 2903 1453 2725 
Q 1184 2453 1037 2087 
Q 891 1722 891 1331 
Q 891 859 1127 628 
Q 1363 397 1844 397 
Q 2081 397 2348 469 
Q 2616 541 2906 684 
L 2797 116 
Q 2547 13 2283 -39 
Q 2019 -91 1741 -91 
Q 1044 -91 669 257 
Q 294 606 294 1253 
Q 294 1797 489 2255 
Q 684 2713 1069 3078 
Q 1331 3328 1684 3456 
Q 2038 3584 2456 3584 
Q 2700 3584 2940 3529 
Q 3181 3475 3431 3366 
z
" transform="scale(0.015625)"/>
      <path id="DejaVuSans-Oblique-74" d="M 2706 3500 
L 2619 3053 
L 1472 3053 
L 1100 1153 
Q 1081 1047 1072 975 
Q 1063 903 1063 863 
Q 1063 663 1183 572 
Q 1303 481 1569 481 
L 2150 481 
L 2053 0 
L 1503 0 
Q 991 0 739 200 
Q 488 400 488 806 
Q 488 878 497 964 
Q 506 1050 525 1153 
L 897 3053 
L 409 3053 
L 500 3500 
L 978 3500 
L 1172 4494 
L 1747 4494 
L 1556 3500 
L 2706 3500 
z
" transform="scale(0.015625)"/>
      <path id="DejaVuSans-Oblique-69" d="M 1172 4863 
L 1747 4863 
L 1606 4134 
L 1031 4134 
L 1172 4863 
z
M 909 3500 
L 1484 3500 
L 800 0 
L 225 0 
L 909 3500 
z
" transform="scale(0.015625)"/>
      <path id="DejaVuSans-Oblique-76" d="M 459 3500 
L 1069 3500 
L 1581 525 
L 3256 3500 
L 3866 3500 
L 1875 0 
L 1100 0 
L 459 3500 
z
" transform="scale(0.015625)"/>
      <path id="DejaVuSans-Oblique-65" d="M 3078 2063 
Q 3088 2113 3092 2166 
Q 3097 2219 3097 2272 
Q 3097 2653 2873 2875 
Q 2650 3097 2266 3097 
Q 1838 3097 1509 2826 
Q 1181 2556 1013 2059 
L 3078 2063 
z
M 3578 1613 
L 903 1613 
Q 884 1494 878 1425 
Q 872 1356 872 1306 
Q 872 872 1139 634 
Q 1406 397 1894 397 
Q 2269 397 2603 481 
Q 2938 566 3225 728 
L 3116 159 
Q 2806 34 2476 -28 
Q 2147 -91 1806 -91 
Q 1078 -91 686 257 
Q 294 606 294 1247 
Q 294 1794 489 2264 
Q 684 2734 1063 3103 
Q 1306 3334 1642 3459 
Q 1978 3584 2356 3584 
Q 2950 3584 3301 3228 
Q 3653 2872 3653 2272 
Q 3653 2128 3634 1964 
Q 3616 1800 3578 1613 
z
" transform="scale(0.015625)"/>
     </defs>
     <use xlink:href="#DejaVuSans-Oblique-55" transform="translate(0 0.015625)"/>
     <use xlink:href="#DejaVuSans-31" transform="translate(73.193359 0.015625)"/>
     <use xlink:href="#DejaVuSans-30" transform="translate(136.816406 0.015625)"/>
     <use xlink:href="#DejaVuSans-Oblique-41" transform="translate(200.439453 0.015625)"/>
     <use xlink:href="#DejaVuSans-Oblique-63" transform="translate(268.847656 0.015625)"/>
     <use xlink:href="#DejaVuSans-Oblique-74" transform="translate(323.828125 0.015625)"/>
     <use xlink:href="#DejaVuSans-Oblique-69" transform="translate(363.037109 0.015625)"/>
     <use xlink:href="#DejaVuSans-Oblique-76" transform="translate(390.820312 0.015625)"/>
     <use xlink:href="#DejaVuSans-Oblique-65" transform="translate(450 0.015625)"/>
    </g>
   </g>
   <g id="text_2">
    <!-- A3 -->
    <g transform="translate(160.953125 16.994219) scale(0.125 -0.125)">
     <defs>
      <path id="DejaVuSans-41" d="M 2188 4044 
L 1331 1722 
L 3047 1722 
L 2188 4044 
z
M 1831 4666 
L 2547 4666 
L 4325 0 
L 3669 0 
L 3244 1197 
L 1141 1197 
L 716 0 
L 50 0 
L 1831 4666 
z
" transform="scale(0.015625)"/>
      <path id="DejaVuSans-33" d="M 2597 2516 
Q 3050 2419 3304 2112 
Q 3559 1806 3559 1356 
Q 3559 666 3084 287 
Q 2609 -91 1734 -91 
Q 1441 -91 1130 -33 
Q 819 25 488 141 
L 488 750 
Q 750 597 1062 519 
Q 1375 441 1716 441 
Q 2309 441 2620 675 
Q 2931 909 2931 1356 
Q 2931 1769 2642 2001 
Q 2353 2234 1838 2234 
L 1294 2234 
L 1294 2753 
L 1863 2753 
Q 2328 2753 2575 2939 
Q 2822 3125 2822 3475 
Q 2822 3834 2567 4026 
Q 2313 4219 1838 4219 
Q 1578 4219 1281 4162 
Q 984 4106 628 3988 
L 628 4550 
Q 988 4650 1302 4700 
Q 1616 4750 1894 4750 
Q 2613 4750 3031 4423 
Q 3450 4097 3450 3541 
Q 3450 3153 3228 2886 
Q 3006 2619 2597 2516 
z
" transform="scale(0.015625)"/>
     </defs>
     <use xlink:href="#DejaVuSans-41"/>
     <use xlink:href="#DejaVuSans-33" x="68.408203"/>
    </g>
   </g>
   <g id="text_3">
    <!-- A7 -->
    <g transform="translate(160.953125 28.874219) scale(0.125 -0.125)">
     <defs>
      <path id="DejaVuSans-37" d="M 525 4666 
L 3525 4666 
L 3525 4397 
L 1831 0 
L 1172 0 
L 2766 4134 
L 525 4134 
L 525 4666 
z
" transform="scale(0.015625)"/>
     </defs>
     <use xlink:href="#DejaVuSans-41"/>
     <use xlink:href="#DejaVuSans-37" x="68.408203"/>
    </g>
   </g>
   <g id="text_4">
    <!-- A9 -->
    <g transform="translate(11.553125 42.374219) scale(0.125 -0.125)">
     <defs>
      <path id="DejaVuSans-39" d="M 703 97 
L 703 672 
Q 941 559 1184 500 
Q 1428 441 1663 441 
Q 2288 441 2617 861 
Q 2947 1281 2994 2138 
Q 2813 1869 2534 1725 
Q 2256 1581 1919 1581 
Q 1219 1581 811 2004 
Q 403 2428 403 3163 
Q 403 3881 828 4315 
Q 1253 4750 1959 4750 
Q 2769 4750 3195 4129 
Q 3622 3509 3622 2328 
Q 3622 1225 3098 567 
Q 2575 -91 1691 -91 
Q 1453 -91 1209 -44 
Q 966 3 703 97 
z
M 1959 2075 
Q 2384 2075 2632 2365 
Q 2881 2656 2881 3163 
Q 2881 3666 2632 3958 
Q 2384 4250 1959 4250 
Q 1534 4250 1286 3958 
Q 1038 3666 1038 3163 
Q 1038 2656 1286 2365 
Q 1534 2075 1959 2075 
z
" transform="scale(0.015625)"/>
     </defs>
     <use xlink:href="#DejaVuSans-41"/>
     <use xlink:href="#DejaVuSans-39" x="68.408203"/>
    </g>
   </g>
   <g id="text_5">
    <!-- A12 -->
    <g transform="translate(3.6 69.374219) scale(0.125 -0.125)">
     <defs>
      <path id="DejaVuSans-32" d="M 1228 531 
L 3431 531 
L 3431 0 
L 469 0 
L 469 531 
Q 828 903 1448 1529 
Q 2069 2156 2228 2338 
Q 2531 2678 2651 2914 
Q 2772 3150 2772 3378 
Q 2772 3750 2511 3984 
Q 2250 4219 1831 4219 
Q 1534 4219 1204 4116 
Q 875 4013 500 3803 
L 500 4441 
Q 881 4594 1212 4672 
Q 1544 4750 1819 4750 
Q 2544 4750 2975 4387 
Q 3406 4025 3406 3419 
Q 3406 3131 3298 2873 
Q 3191 2616 2906 2266 
Q 2828 2175 2409 1742 
Q 1991 1309 1228 531 
z
" transform="scale(0.015625)"/>
     </defs>
     <use xlink:href="#DejaVuSans-41"/>
     <use xlink:href="#DejaVuSans-31" x="68.408203"/>
     <use xlink:href="#DejaVuSans-32" x="132.03125"/>
    </g>
   </g>
  </g>
 </g>
 <defs>
  <clipPath id="pb7560ab4f5">
   <rect x="20.857031" y="3.6" width="237.6" height="84.15"/>
  </clipPath>
 </defs>
</svg>
